<?xml version="1.0" encoding="UTF-8"?>
<svg version="1.1" xmlns="http://www.w3.org/2000/svg" width="304" height="57">
<path d="M0 0 C100.32 0 200.64 0 304 0 C304 18.81 304 37.62 304 57 C203.68 57 103.36 57 0 57 C0 38.19 0 19.38 0 0 Z " fill="#F6F8F8" transform="translate(0,0)"/>
<path d="M0 0 C0.89879802 0.00037972 1.79759604 0.00075944 2.72363037 0.00115067 C3.75670651 -0.00084038 4.78978265 -0.00283143 5.85416412 -0.00488281 C7.00297198 -0.00196997 8.15177983 0.00094287 9.33540004 0.00394398 C11.14977893 0.00266234 11.14977893 0.00266234 13.00081193 0.00135481 C16.37343984 -0.00001341 19.74601042 0.00313419 23.11863142 0.00813287 C26.74986796 0.01243397 30.38110259 0.01099119 34.01234096 0.0102306 C40.30875297 0.00970515 46.60515465 0.01285416 52.90156406 0.01846844 C62.00521926 0.02658057 71.10886944 0.02919836 80.21252786 0.03045643 C94.98106276 0.0326474 109.74959214 0.03930871 124.51812404 0.04875904 C138.86805866 0.05793199 153.21799178 0.0650134 167.56792873 0.06926686 C168.89376068 0.06966094 168.89376068 0.06966094 170.24637712 0.07006299 C174.68039157 0.07136798 179.11440602 0.0726317 183.54842049 0.07387489 C220.35823116 0.08424891 257.16803557 0.10186845 293.97784084 0.1241985 C294.30784084 1.4441985 294.63784084 2.7641985 294.97784084 4.1241985 C291.70813142 6.30400477 290.80000243 6.37351494 287.0171904 6.37029415 C285.98709895 6.37427625 284.95700751 6.37825835 283.89570117 6.38236111 C282.7605009 6.37653543 281.62530062 6.37070975 280.45570034 6.36470753 C279.25257267 6.36641638 278.049445 6.36812523 276.80985892 6.36988586 C273.4644874 6.37261641 270.11934845 6.3663437 266.774005 6.35632974 C263.16870705 6.34771026 259.56341657 6.35061433 255.95811123 6.35213429 C249.70973987 6.35318409 243.46141022 6.34689753 237.21304935 6.33565861 C228.17892253 6.31941949 219.14481591 6.31419723 210.11067607 6.31168263 C195.45416292 6.30730303 180.797672 6.29398674 166.14117092 6.2750774 C151.90191424 6.25672546 137.6626636 6.2425656 123.42339748 6.23406178 C122.54600895 6.23353633 121.66862042 6.23301088 120.76464436 6.23246951 C116.36313935 6.22985948 111.9616343 6.22733205 107.56012923 6.22484571 C71.03268406 6.20410495 34.50526418 6.16887222 -2.02215916 6.1241985 C-2.40434683 4.46805192 -2.73611018 2.79962825 -3.02215916 1.1241985 C-2.02215916 0.1241985 -2.02215916 0.1241985 0 0 Z " fill="#85C5B0" transform="translate(5.022159159183502,43.875801503658295)"/>
<path d="M0 0 C59.73 0 119.46 0 181 0 C180.34 0.33 179.68 0.66 179 1 C179.33 2.65 179.66 4.3 180 6 C120.6 6 61.2 6 0 6 C0 4.02 0 2.04 0 0 Z " fill="#FDFDFD" transform="translate(55,51)"/>
<path d="M0 0 C2.54449914 1.39316585 4.3851661 2.52423845 5.703125 5.16015625 C6.63647006 15.51875632 6.63647006 15.51875632 3.890625 20.34765625 C0.23031995 23.38048043 -3.06351887 23.37247459 -7.671875 23.47265625 C-8.79335938 23.51003906 -9.91484375 23.54742188 -11.0703125 23.5859375 C-14.95073086 23.07387261 -16.53249925 21.86924448 -19.296875 19.16015625 C-21.53349992 14.6869064 -20.890537 9.0053976 -20.296875 4.16015625 C-19.25975853 1.93587242 -18.47598806 1.11266669 -16.40234375 -0.16796875 C-11.08705008 -1.86412925 -5.25261524 -1.92059911 0 0 Z " fill="#0E0E0E" transform="translate(266.296875,6.83984375)"/>
<path d="M0 0 C2.51625 -0.061875 5.0325 -0.12375 7.625 -0.1875 C8.79603271 -0.22846802 8.79603271 -0.22846802 9.99072266 -0.27026367 C14.72198885 -0.3261164 17.93033526 0.34457359 22 3 C24.78169 5.84062411 25.45084604 7.93039436 25.5 11.875 C25.4024554 15.54376064 24.96219783 17.70669318 22.625 20.5625 C19.40856165 23.54919276 18.10389281 24.1274922 13.8671875 24.09765625 C13.14128418 24.09515869 12.41538086 24.09266113 11.66748047 24.09008789 C10.74596191 24.08098389 9.82444336 24.07187988 8.875 24.0625 C5.94625 24.041875 3.0175 24.02125 0 24 C0 16.08 0 8.16 0 0 Z " fill="#0E0E0E" transform="translate(62,6)"/>
<path d="M0 0 C4.021875 -0.0928125 4.021875 -0.0928125 8.125 -0.1875 C8.95789551 -0.21481201 9.79079102 -0.24212402 10.64892578 -0.27026367 C15.52700071 -0.32438691 18.72430072 0.3976974 23 3 C23.05437607 4.58294782 23.09296271 6.16644256 23.125 7.75 C23.14820312 8.63171875 23.17140625 9.5134375 23.1953125 10.421875 C23 13 23 13 21.90625 15.1640625 C21.6071875 15.76992188 21.308125 16.37578125 21 17 C22.31865712 19.64225405 22.31865712 19.64225405 24 22 C24 22.66 24 23.32 24 24 C21.25 24.375 21.25 24.375 18 24 C17.38125 23.030625 16.7625 22.06125 16.125 21.0625 C14.39280026 17.89246888 14.39280026 17.89246888 11.9765625 17.37890625 C9.9932293 17.15273667 7.99507911 17.06650264 6 17 C6 19.31 6 21.62 6 24 C4.02 24 2.04 24 0 24 C0 16.08 0 8.16 0 0 Z " fill="#111111" transform="translate(91,6)"/>
<path d="M0 0 C2.866875 -0.0825 5.73375 -0.165 8.6875 -0.25 C9.58170654 -0.28641602 10.47591309 -0.32283203 11.3972168 -0.36035156 C15.37076932 -0.41560787 17.53867785 -0.26605664 21.0546875 1.76171875 C23.13595495 4.15643009 23.62281681 4.959938 23.4375 8.0625 C23 12 23 12 21 15 C20.34 15 19.68 15 19 15 C19.66 15.928125 20.32 16.85625 21 17.8125 C23 21 23 21 23 24 C20.25 24.375 20.25 24.375 17 24 C16.360625 23.030625 15.72125 22.06125 15.0625 21.0625 C13.24077654 17.60750894 13.24077654 17.60750894 9.25 17.125 C8.1775 17.08375 7.105 17.0425 6 17 C6 19.31 6 21.62 6 24 C4.02 24 2.04 24 0 24 C0 16.08 0 8.16 0 0 Z " fill="#101010" transform="translate(155,6)"/>
<path d="M0 0 C2.31 0 4.62 0 7 0 C9.21484375 2.40625 9.21484375 2.40625 10.9375 5.5 C11.52402344 6.5209375 12.11054688 7.541875 12.71484375 8.59375 C13.13894531 9.3878125 13.56304687 10.181875 14 11 C16.75166803 8.43019508 18.47160719 5.67468742 20.328125 2.42578125 C22 1 22 1 29 1 C29 8.59 29 16.18 29 24 C27.02 24 25.04 24 23 24 C22.505 17.565 22.505 17.565 22 11 C20.35 13.64 18.7 16.28 17 19 C12.16743695 18.58578031 10.17320782 16.53586014 7 13 C7 16.63 7 20.26 7 24 C4.69 24 2.38 24 0 24 C0 16.08 0 8.16 0 0 Z " fill="#181818" transform="translate(212,6)"/>
<path d="M0 0 C7.26 0 14.52 0 22 0 C22 1.65 22 3.3 22 5 C17.05 5 12.1 5 7 5 C7 5.99 7 6.98 7 8 C10.96 8 14.92 8 19 8 C19 9.98 19 11.96 19 14 C15.04 14 11.08 14 7 14 C7 14.99 7 15.98 7 17 C12.28 17 17.56 17 23 17 C23 18.98 23 20.96 23 23 C15.41 23 7.82 23 0 23 C0 15.41 0 7.82 0 0 Z " fill="#161616" transform="translate(119,7)"/>
<path d="M0 0 C7 0 7 0 9.6171875 2.046875 C10.36226562 2.93890625 11.10734375 3.8309375 11.875 4.75 C12.63554688 5.63171875 13.39609375 6.5134375 14.1796875 7.421875 C15.82826587 9.75677141 16.59638084 11.21372581 17 14 C17.66 14 18.32 14 19 14 C19 9.38 19 4.76 19 0 C20.98 0 22.96 0 25 0 C25 7.59 25 15.18 25 23 C18 23 18 23 16.14453125 21.42578125 C15.70496094 20.72839844 15.26539063 20.03101562 14.8125 19.3125 C14.36519531 18.62800781 13.91789062 17.94351562 13.45703125 17.23828125 C12.97621094 16.49964844 12.49539062 15.76101562 12 15 C10.68 13.35 9.36 11.7 8 10 C7.67 14.29 7.34 18.58 7 23 C4.69 23 2.38 23 0 23 C0 15.41 0 7.82 0 0 Z " fill="#131313" transform="translate(32,7)"/>
<path d="M0 0 C1.42119141 -0.00386719 1.42119141 -0.00386719 2.87109375 -0.0078125 C5.26390459 0.11026525 7.27586153 0.44387365 9.5625 1.125 C9.5625 3.105 9.5625 5.085 9.5625 7.125 C4.6125 6.795 -0.3375 6.465 -5.4375 6.125 C-5.4375 7.115 -5.4375 8.105 -5.4375 9.125 C-4.56738281 9.07279297 -4.56738281 9.07279297 -3.6796875 9.01953125 C1.56468151 8.83779569 4.9821754 9.26229712 9.5625 12.125 C10.5625 13.125 10.5625 13.125 10.9375 16.4375 C10.5625 20.125 10.5625 20.125 8.58984375 22.33984375 C4.5101008 24.74557604 1.38429016 24.57699756 -3.25 24.375 C-4.43239258 24.34792969 -4.43239258 24.34792969 -5.63867188 24.3203125 C-7.57214261 24.27344048 -9.50498285 24.2017041 -11.4375 24.125 C-11.4375 22.145 -11.4375 20.165 -11.4375 18.125 C-6.1575 18.125 -0.8775 18.125 4.5625 18.125 C4.2325 17.465 3.9025 16.805 3.5625 16.125 C0.5367169 15.51532729 -2.49219312 15.16520073 -5.5546875 14.78515625 C-8.5834743 14.09157228 -9.69116593 13.65479216 -11.4375 11.125 C-12.08794248 5.05420354 -12.08794248 5.05420354 -10.125 2.25 C-6.81039405 0.0402627 -3.86220066 -0.01048087 0 0 Z " fill="#101010" transform="translate(288.4375,5.875)"/>
<path d="M0 0 C0.33 0.99 0.66 1.98 1 3 C1.66 3 2.32 3 3 3 C3 3.66 3 4.32 3 5 C18.84 5 34.68 5 51 5 C50.67 5.99 50.34 6.98 50 8 C49.34 7.67 48.68 7.34 48 7 C48.495 9.475 48.495 9.475 49 12 C32.83 12 16.66 12 0 12 C0 8.04 0 4.08 0 0 Z " fill="#FCFDFE" transform="translate(0,45)"/>
<path d="M0 0 C2.31 0 4.62 0 7 0 C8.67294007 3.45533314 10.33727763 6.91473993 12 10.375 C12.47695312 11.35984375 12.95390625 12.3446875 13.4453125 13.359375 C13.89648438 14.30039062 14.34765625 15.24140625 14.8125 16.2109375 C15.23144531 17.08024902 15.65039062 17.94956055 16.08203125 18.84521484 C17 21 17 21 17 23 C14.69 23 12.38 23 10 23 C9.67 21.68 9.34 20.36 9 19 C5.04 18.67 1.08 18.34 -3 18 C-3.33 19.65 -3.66 21.3 -4 23 C-5.98 23 -7.96 23 -10 23 C-9.49657198 17.27007382 -7.16867537 13.06035518 -4.4375 8.125 C-4.01275391 7.34125 -3.58800781 6.5575 -3.15039062 5.75 C-2.10789462 3.82899613 -1.05767555 1.9126751 0 0 Z " fill="#181818" transform="translate(192,7)"/>
<path d="M0 0 C1.134375 0.020625 2.26875 0.04125 3.4375 0.0625 C5.11044007 3.51783314 6.77477763 6.97723993 8.4375 10.4375 C8.91445313 11.42234375 9.39140625 12.4071875 9.8828125 13.421875 C10.33398438 14.36289062 10.78515625 15.30390625 11.25 16.2734375 C11.66894531 17.14274902 12.08789062 18.01206055 12.51953125 18.90771484 C13.4375 21.0625 13.4375 21.0625 13.4375 23.0625 C11.4575 23.0625 9.4775 23.0625 7.4375 23.0625 C7.23382812 22.41796875 7.03015625 21.7734375 6.8203125 21.109375 C5.5707065 18.75096128 5.5707065 18.75096128 2.6171875 18.453125 C1.52664062 18.40671875 0.43609375 18.3603125 -0.6875 18.3125 C-1.78320312 18.25578125 -2.87890625 18.1990625 -4.0078125 18.140625 C-4.85085938 18.11484375 -5.69390625 18.0890625 -6.5625 18.0625 C-6.8925 19.7125 -7.2225 21.3625 -7.5625 23.0625 C-9.5425 23.0625 -11.5225 23.0625 -13.5625 23.0625 C-12.91842303 18.03064871 -10.7400132 13.82741374 -8.5625 9.3125 C-8.19382812 8.53261719 -7.82515625 7.75273437 -7.4453125 6.94921875 C-4.16870923 0.07313525 -4.16870923 0.07313525 0 0 Z " fill="#121212" transform="translate(15.5625,6.9375)"/>
<path d="M0 0 C1.3303125 0.00773438 1.3303125 0.00773438 2.6875 0.015625 C3.574375 0.01046875 4.46125 0.0053125 5.375 0 C7.6875 0.265625 7.6875 0.265625 9.6875 2.265625 C10.36661715 9.39635505 10.36661715 9.39635505 8.125 12.265625 C4.81530596 13.6234482 2.23109483 13.58776998 -1.3125 13.265625 C-2.3025 12.605625 -3.2925 11.945625 -4.3125 11.265625 C-4.67578125 9.171875 -4.67578125 9.171875 -4.625 6.765625 C-4.62113281 5.9715625 -4.61726562 5.1775 -4.61328125 4.359375 C-4.16445976 1.23511111 -3.10036553 0.35612307 0 0 Z " fill="#F4F4F4" transform="translate(256.3125,11.734375)"/>
<path d="M0 0 C1.60875 -0.04125 3.2175 -0.0825 4.875 -0.125 C5.77992187 -0.14820313 6.68484375 -0.17140625 7.6171875 -0.1953125 C10 0 10 0 12 2 C12.1953125 4.1640625 12.1953125 4.1640625 12.125 6.625 C12.10695313 7.44226563 12.08890625 8.25953125 12.0703125 9.1015625 C12.03550781 10.04128906 12.03550781 10.04128906 12 11 C9.1004339 12.65876079 7.08364791 13.2361216 3.75 13.125 C1.89375 13.063125 1.89375 13.063125 0 13 C0 8.71 0 4.42 0 0 Z " fill="#F3F3F3" transform="translate(68,12)"/>
<path d="M0 0 C6.0546875 -0.1953125 6.0546875 -0.1953125 8 0 C8.66 0.66 9.32 1.32 10 2 C10.66 1.67 11.32 1.34 12 1 C16 7.75 16 7.75 16 10 C13.25 10.375 13.25 10.375 10 10 C9.38125 9.030625 8.7625 8.06125 8.125 7.0625 C6.39280026 3.89246888 6.39280026 3.89246888 3.9765625 3.37890625 C1.9932293 3.15273667 -0.00492089 3.06650264 -2 3 C-1.34 2.67 -0.68 2.34 0 2 C0 1.34 0 0.68 0 0 Z " fill="#1B1B1B" transform="translate(99,20)"/>
<path d="M0 0 C3.63 0 7.26 0 11 0 C11 1.65 11 3.3 11 5 C7.37 5 3.74 5 0 5 C0 3.35 0 1.7 0 0 Z " fill="#F0F0F0" transform="translate(97,12)"/>
<path d="M0 0 C3.63 0 7.26 0 11 0 C10.67 1.65 10.34 3.3 10 5 C6.7 5 3.4 5 0 5 C0 3.35 0 1.7 0 0 Z " fill="#F2F2F2" transform="translate(161,12)"/>
<path d="M0 0 C2.64 0 5.28 0 8 0 C8.33 0.66 8.66 1.32 9 2 C3.25 5 3.25 5 1 5 C0.67 5.66 0.34 6.32 0 7 C0 4.69 0 2.38 0 0 Z " fill="#E4E4E4" transform="translate(97,23)"/>
<path d="M0 0 C2.6875 -0.25 2.6875 -0.25 5 0 C5 0.66 5 1.32 5 2 C6.32 2 7.64 2 9 2 C9 2.66 9 3.32 9 4 C5.04 4 1.08 4 -3 4 C-2.01 2.68 -1.02 1.36 0 0 Z " fill="#070707" transform="translate(191,21)"/>
<path d="M0 0 C1.65 0 3.3 0 5 0 C5.33 0.99 5.66 1.98 6 3 C3.35541621 4.32229189 1.32238699 4.09677194 -1.625 4.0625 C-2.62789063 4.05347656 -3.63078125 4.04445313 -4.6640625 4.03515625 C-5.43492187 4.02355469 -6.20578125 4.01195312 -7 4 C-7 3.67 -7 3.34 -7 3 C-5.5459375 2.814375 -5.5459375 2.814375 -4.0625 2.625 C-2.5465625 2.315625 -2.5465625 2.315625 -1 2 C-0.67 1.34 -0.34 0.68 0 0 Z " fill="#CACACA" transform="translate(287,21)"/>
<path d="M0 0 C0.66 0 1.32 0 2 0 C2.33 1.32 2.66 2.64 3 4 C1.02 4.99 1.02 4.99 -1 6 C-1 6.66 -1 7.32 -1 8 C-0.01 8.33 0.98 8.66 2 9 C0.35 9 -1.3 9 -3 9 C-3.33 7.68 -3.66 6.36 -4 5 C-2.35 4.34 -0.7 3.68 1 3 C0.67 2.01 0.34 1.02 0 0 Z " fill="#1D1D1D" transform="translate(292,21)"/>
<path d="M0 0 C0.66 0 1.32 0 2 0 C3.4606285 2.64738916 4 3.89448334 4 7 C2.02 7 0.04 7 -2 7 C-1.34 4.69 -0.68 2.38 0 0 Z " fill="#DADADA" transform="translate(194,13)"/>
<path d="M0 0 C3 3.625 3 3.625 3 7 C1.35 7 -0.3 7 -2 7 C-1.125 1.125 -1.125 1.125 0 0 Z " fill="#E4E4E4" transform="translate(15,13)"/>
<path d="M0 0 C0.99 0 1.98 0 3 0 C3.33 1.65 3.66 3.3 4 5 C2.35 5 0.7 5 -1 5 C-0.67 3.35 -0.34 1.7 0 0 Z " fill="#0B0B0B" transform="translate(204,24)"/>
<path d="M0 0 C0 1.32 0 2.64 0 4 C-3.75 5.125 -3.75 5.125 -6 4 C-6 3.01 -6 2.02 -6 1 C-3.92446352 0.4465236 -2.15634036 0 0 0 Z " fill="#7CBFA8" transform="translate(257,44)"/>
<path d="M0 0 C0.66 0.66 1.32 1.32 2 2 C4.10820797 1.6814823 4.10820797 1.6814823 6 1 C5.67 2.32 5.34 3.64 5 5 C3.02 5 1.04 5 -1 5 C-0.67 3.35 -0.34 1.7 0 0 Z " fill="#303030" transform="translate(3,25)"/>
<path d="M0 0 C0.66 0.33 1.32 0.66 2 1 C2 2.32 2 3.64 2 5 C0.68 5 -0.64 5 -2 5 C-2 3.68 -2 2.36 -2 1 C-1.34 0.67 -0.68 0.34 0 0 Z " fill="#040404" transform="translate(287,25)"/>
<path d="M0 0 C1.65 0 3.3 0 5 0 C3.6875 2 3.6875 2 2 4 C1.01 4 0.02 4 -1 4 C-0.67 2.68 -0.34 1.36 0 0 Z " fill="#2D2D2D" transform="translate(130,0)"/>
</svg>
