<?xml version="1.0" encoding="UTF-8"?>
<svg version="1.1" xmlns="http://www.w3.org/2000/svg" width="152" height="29">
<path d="M0 0 C50.16 0 100.32 0 152 0 C152 9.57 152 19.14 152 29 C101.84 29 51.68 29 0 29 C0 19.43 0 9.86 0 0 Z " fill="#F7F7F7" transform="translate(0,0)"/>
<path d="M0 0 C14.55114366 -0.06941533 29.10224813 -0.12276822 43.65352345 -0.15543652 C50.40977931 -0.17091241 57.16593047 -0.19201557 63.92211914 -0.22631836 C70.43840329 -0.25938735 76.95461939 -0.27683794 83.47098351 -0.28463173 C85.96096195 -0.29018814 88.45093422 -0.30103796 90.94086647 -0.31719017 C94.42010147 -0.33886869 97.89888251 -0.3419709 101.37817383 -0.34057617 C102.93291916 -0.35675491 102.93291916 -0.35675491 104.51907349 -0.3732605 C105.46558273 -0.36913651 106.41209198 -0.36501251 107.38728333 -0.36076355 C108.21044446 -0.36352893 109.03360559 -0.36629431 109.88171101 -0.36914349 C112.47444569 0.08267925 113.3580126 0.99789751 115 3 C115.66 2.67 116.32 2.34 117 2 C116.43628586 5.26954202 115.50037734 6.82575883 113 9 C112.401875 8.195625 111.80375 7.39125 111.1875 6.5625 C109.19052724 3.77672016 109.19052724 3.77672016 106 3 C106 6.96 106 10.92 106 15 C104.68 15.33 103.36 15.66 102 16 C102.66 15.67 103.32 15.34 104 15 C103.2422473 13.18199254 102.46836612 11.37070031 101.6875 9.5625 C101.04361328 8.04849609 101.04361328 8.04849609 100.38671875 6.50390625 C99.19721777 3.68979416 99.19721777 3.68979416 96 3 C95.731875 3.845625 95.46375 4.69125 95.1875 5.5625 C91.49450549 16.25274725 91.49450549 16.25274725 86 19 C85.67 19.66 85.34 20.32 85 21 C85.99 21 86.98 21 88 21 C88.33 20.34 88.66 19.68 89 19 C89.33 19.33 89.66 19.66 90 20 C92.80976518 20.16017166 95.59773596 20.25950534 98.41015625 20.31640625 C99.25219101 20.33718735 100.09422577 20.35796844 100.96177673 20.37937927 C103.66193179 20.44496812 106.36218717 20.50380276 109.0625 20.5625 C110.88868241 20.60567637 112.71485454 20.64929036 114.54101562 20.69335938 C119.02723992 20.80065894 123.5135655 20.90189966 128 21 C128.33 20.34 128.66 19.68 129 19 C129.33 19.33 129.66 19.66 130 20 C132.52596259 20.23653523 135.03107207 20.42173692 137.5625 20.5625 C138.62887695 20.62727539 138.62887695 20.62727539 139.71679688 20.69335938 C141.47761912 20.79971777 143.2387832 20.90038846 145 21 C145 21.33 145 21.66 145 22 C98.14 22 51.28 22 3 22 C3 21.67 3 21.34 3 21 C14.88 21 26.76 21 39 21 C39 20.34 39 19.68 39 19 C39.66 19 40.32 19 41 19 C41.495 17.515 41.495 17.515 42 16 C45.465 15.505 45.465 15.505 49 15 C49 14.01 49 13.02 49 12 C50.32 12 51.64 12 53 12 C53.495 12.99 53.495 12.99 54 14 C54.99 14.33 55.98 14.66 57 15 C56.814375 14.29875 56.62875 13.5975 56.4375 12.875 C55.94843024 9.66111302 56.33768442 7.16439664 57 4 C53.04 3.67 49.08 3.34 45 3 C45 5.97 45 8.94 45 12 C44.34 12.33 43.68 12.66 43 13 C42.8046875 10.94921875 42.609375 8.8984375 42.4140625 6.84765625 C42.20910156 5.93306641 42.20910156 5.93306641 42 5 C39.70370006 3.85185003 37.92301914 3.69230191 35.375 3.4375 C33.93125 3.293125 32.4875 3.14875 31 3 C31 6.96 31 10.92 31 15 C30.34 14.67 29.68 14.34 29 14 C29 10.37 29 6.74 29 3 C27.68 3 26.36 3 25 3 C25 5.31 25 7.62 25 10 C24.2575 9.21625 23.515 8.4325 22.75 7.625 C20.02757055 4.76871373 20.02757055 4.76871373 16 3 C16 6.96 16 10.92 16 15 C14.68 15.33 13.36 15.66 12 16 C12.66 15.67 13.32 15.34 14 15 C13.2422473 13.18199254 12.46836612 11.37070031 11.6875 9.5625 C11.04361328 8.04849609 11.04361328 8.04849609 10.38671875 6.50390625 C9.19721777 3.68979416 9.19721777 3.68979416 6 3 C5.731875 3.86625 5.46375 4.7325 5.1875 5.625 C4.02888013 8.91791964 2.61790161 11.91127875 1 15 C1.99 15.33 2.98 15.66 4 16 C2.68 16.33 1.36 16.66 0 17 C0 11.39 0 5.78 0 0 Z " fill="#F9F9FA" transform="translate(0,0)"/>
<path d="M0 0 C1.86328125 0.22265625 1.86328125 0.22265625 4 1 C5.23046875 2.99609375 5.23046875 2.99609375 6.1875 5.4375 C6.67283203 6.64212891 6.67283203 6.64212891 7.16796875 7.87109375 C7.44253906 8.57363281 7.71710937 9.27617187 8 10 C8.33 10.66 8.66 11.32 9 12 C9.33 8.04 9.66 4.08 10 0 C14.59037956 1.14759489 15.33669182 2.29039218 18 6 C18.33 4.02 18.66 2.04 19 0 C20.32 0 21.64 0 23 0 C23.33 3.63 23.66 7.26 24 11 C24.33 7.37 24.66 3.74 25 0 C33.625 -0.25 33.625 -0.25 37 2 C37.6875 5.625 37.6875 5.625 38 9 C38.33 6.03 38.66 3.06 39 0 C40.62490954 -0.02698189 42.24994633 -0.04638757 43.875 -0.0625 C45.23238281 -0.07990234 45.23238281 -0.07990234 46.6171875 -0.09765625 C49 0 49 0 51 1 C51 4.63 51 8.26 51 12 C49.68 11.67 48.36 11.34 47 11 C47 10.34 47 9.68 47 9 C45.68 9 44.36 9 43 9 C43 9.99 43 10.98 43 12 C41.68 12 40.36 12 39 12 C38.67 12.66 38.34 13.32 38 14 C37.34 14 36.68 14 36 14 C35.67 14.66 35.34 15.32 35 16 C34.34 16 33.68 16 33 16 C33 16.66 33 17.32 33 18 C21.12 18.33 9.24 18.66 -3 19 C-3.33 20.32 -3.66 21.64 -4 23 C-4.66 23 -5.32 23 -6 23 C-6.5739099 14.10439654 -3.97620765 7.82703937 0 0 Z " fill="#F0F0F0" transform="translate(6,3)"/>
<path d="M0 0 C1.23962997 -0.00137466 2.47925995 -0.00274933 3.75645447 -0.00416565 C5.13763452 -0.00062628 6.51881432 0.00300854 7.8999939 0.00672913 C9.34854633 0.00701108 10.7970989 0.00685311 12.24565125 0.00628662 C16.18550225 0.00599895 20.125323 0.01189081 24.06516695 0.01886058 C28.17981597 0.02509913 32.29446563 0.02569831 36.40911865 0.02688599 C44.20411316 0.02999782 51.9990937 0.03820922 59.79408205 0.04823548 C68.66699275 0.0594012 77.53990412 0.06490822 86.4128201 0.06993091 C104.6681555 0.08039194 122.92347787 0.09798853 141.17880249 0.12025452 C137.74618005 1.96543045 135.46120074 2.35730131 131.53817749 2.31556702 C130.46825562 2.3091217 129.39833374 2.30267639 128.29598999 2.29603577 C127.18481812 2.27927795 126.07364624 2.26252014 124.92880249 2.24525452 C123.80216187 2.23623108 122.67552124 2.22720764 121.51473999 2.21791077 C118.73587884 2.1943611 115.95744859 2.16147131 113.17880249 2.12025452 C113.17880249 2.78025452 113.17880249 3.44025452 113.17880249 4.12025452 C73.24880249 4.12025452 33.31880249 4.12025452 -7.82119751 4.12025452 C-7.82119751 3.13025452 -7.82119751 2.14025452 -7.82119751 1.12025452 C-5.11890636 -0.23089106 -3.02671337 -0.00257812 0 0 Z " fill="#EBF8F4" transform="translate(7.821197509765625,24.879745483398438)"/>
<path d="M0 0 C48.51 0 97.02 0 147 0 C147.33 0.99 147.66 1.98 148 3 C98.83 3 49.66 3 -1 3 C-0.67 2.01 -0.34 1.02 0 0 Z " fill="#8DC1B0" transform="translate(2,22)"/>
<path d="M0 0 C21.45 0 42.9 0 65 0 C65.495 1.485 65.495 1.485 66 3 C63.69 3 61.38 3 59 3 C59 4.65 59 6.3 59 8 C58.79632813 7.35546875 58.59265625 6.7109375 58.3828125 6.046875 C57.1332065 3.68846128 57.1332065 3.68846128 54.1796875 3.390625 C53.08914062 3.34421875 51.99859375 3.2978125 50.875 3.25 C49.23144531 3.16492188 49.23144531 3.16492188 47.5546875 3.078125 C46.71164063 3.05234375 45.86859375 3.0265625 45 3 C45 5.97 45 8.94 45 12 C44.34 12.33 43.68 12.66 43 13 C42.8046875 10.94921875 42.609375 8.8984375 42.4140625 6.84765625 C42.20910156 5.93306641 42.20910156 5.93306641 42 5 C39.70370006 3.85185003 37.92301914 3.69230191 35.375 3.4375 C33.93125 3.293125 32.4875 3.14875 31 3 C31 6.96 31 10.92 31 15 C30.34 14.67 29.68 14.34 29 14 C29 10.37 29 6.74 29 3 C27.68 3 26.36 3 25 3 C25 5.31 25 7.62 25 10 C24.2575 9.21625 23.515 8.4325 22.75 7.625 C20.02757055 4.76871373 20.02757055 4.76871373 16 3 C16 6.96 16 10.92 16 15 C14.68 15.33 13.36 15.66 12 16 C12.66 15.67 13.32 15.34 14 15 C13.2422473 13.18199254 12.46836612 11.37070031 11.6875 9.5625 C11.04361328 8.04849609 11.04361328 8.04849609 10.38671875 6.50390625 C9.19721777 3.68979416 9.19721777 3.68979416 6 3 C5.731875 3.86625 5.46375 4.7325 5.1875 5.625 C4.02888013 8.91791964 2.61790161 11.91127875 1 15 C1.99 15.33 2.98 15.66 4 16 C2.68 16.33 1.36 16.66 0 17 C0 11.39 0 5.78 0 0 Z " fill="#F9F9F9" transform="translate(0,0)"/>
<path d="M0 0 C0.57679504 0.16076523 1.15359009 0.32153046 1.74786377 0.48716736 C3.91316224 0.98022622 5.81923487 1.15498261 8.03417969 1.20532227 C9.20494049 1.2352401 9.20494049 1.2352401 10.39935303 1.26576233 C11.23178528 1.28247482 12.06421753 1.29918732 12.921875 1.31640625 C14.21185394 1.3475779 14.21185394 1.3475779 15.52789307 1.37937927 C18.26851598 1.44463739 21.00923275 1.50364917 23.75 1.5625 C25.6106867 1.60570781 27.47136398 1.64932282 29.33203125 1.69335938 C33.88792523 1.80029442 38.4439134 1.90162851 43 2 C43.33 1.34 43.66 0.68 44 0 C45.65 0.66 47.3 1.32 49 2 C49.33 1.34 49.66 0.68 50 0 C50.495 0.495 50.495 0.495 51 1 C53.80976518 1.16017166 56.59773596 1.25950534 59.41015625 1.31640625 C60.25219101 1.33718735 61.09422577 1.35796844 61.96177673 1.37937927 C64.66193179 1.44496812 67.36218717 1.50380276 70.0625 1.5625 C71.88868241 1.60567637 73.71485454 1.64929036 75.54101562 1.69335938 C80.02723992 1.80065894 84.5135655 1.90189966 89 2 C89.33 1.34 89.66 0.68 90 0 C90.495 0.495 90.495 0.495 91 1 C93.52596259 1.23653523 96.03107207 1.42173692 98.5625 1.5625 C99.27341797 1.60568359 99.98433594 1.64886719 100.71679688 1.69335938 C102.47761912 1.79971777 104.2387832 1.90038846 106 2 C106 2.33 106 2.66 106 3 C59.14 3 12.28 3 -36 3 C-36 2.67 -36 2.34 -36 2 C-24.12 2 -12.24 2 0 2 C0 1.34 0 0.68 0 0 Z " fill="#F0FEFC" transform="translate(39,19)"/>
<path d="M0 0 C1.9375 1.0625 1.9375 1.0625 3 3 C3.3125 6.5625 3.3125 6.5625 3 10 C1 12 1 12 -1.09375 12.265625 C-1.8878125 12.26046875 -2.681875 12.2553125 -3.5 12.25 C-4.2940625 12.25515625 -5.088125 12.2603125 -5.90625 12.265625 C-8 12 -8 12 -10 10 C-10.30078125 8.125 -10.30078125 8.125 -10.3125 6 C-10.32925781 5.29875 -10.34601563 4.5975 -10.36328125 3.875 C-10.24339844 3.25625 -10.12351562 2.6375 -10 2 C-6.30513897 -0.46324069 -4.36706908 -0.38991688 0 0 Z " fill="#111111" transform="translate(133,3)"/>
<path d="M0 0 C8.625 -0.25 8.625 -0.25 12 2 C12.36328125 3.875 12.36328125 3.875 12.3125 6 C12.30863281 6.70125 12.30476563 7.4025 12.30078125 8.125 C12 10 12 10 10 12 C7.6171875 12.1953125 7.6171875 12.1953125 4.875 12.125 C2.461875 12.063125 2.461875 12.063125 0 12 C0 8.04 0 4.08 0 0 Z " fill="#090909" transform="translate(31,3)"/>
<path d="M0 0 C1.60875 -0.04125 3.2175 -0.0825 4.875 -0.125 C5.77992187 -0.14820313 6.68484375 -0.17140625 7.6171875 -0.1953125 C10 0 10 0 12 2 C12.125 4.4375 12.125 4.4375 12 7 C12 7.99 12 8.98 12 10 C12 10.66 12 11.32 12 12 C9.07120629 11.37240135 6.63904371 10.41377341 4 9 C4 9.99 4 10.98 4 12 C2.68 12 1.36 12 0 12 C0 8.04 0 4.08 0 0 Z " fill="#1A1A1A" transform="translate(77,3)"/>
<path d="M0 0 C8.75 -0.125 8.75 -0.125 11 1 C11 4.63 11 8.26 11 12 C9.68 11.67 8.36 11.34 7 11 C7 10.34 7 9.68 7 9 C5.68 9 4.36 9 3 9 C3 9.99 3 10.98 3 12 C2.01 12 1.02 12 0 12 C0 8.04 0 4.08 0 0 Z " fill="#424242" transform="translate(46,3)"/>
<path d="M0 0 C2.0625 0.4375 2.0625 0.4375 4 1 C3.67 1.33 3.34 1.66 3 2 C3.99 2.33 4.98 2.66 6 3 C6 3.99 6 4.98 6 6 C3.36 6 0.72 6 -2 6 C-2 6.66 -2 7.32 -2 8 C-0.02 8 1.96 8 4 8 C4 8.99 4 9.98 4 11 C4.66 11.33 5.32 11.66 6 12 C6 12.99 6 13.98 6 15 C2.37 15 -1.26 15 -5 15 C-5 11.04 -5 7.08 -5 3 C-3.68 2.34 -2.36 1.68 -1 1 C-0.67 0.67 -0.34 0.34 0 0 Z " fill="#0D0D0D" transform="translate(65,0)"/>
<path d="M0 0 C4.19174654 1.04793663 5.21592961 1.91763635 8 5 C8.6496875 3.7625 8.6496875 3.7625 9.3125 2.5 C9.869375 1.675 10.42625 0.85 11 0 C11.99 0 12.98 0 14 0 C14 3.96 14 7.92 14 12 C13.01 12 12.02 12 11 12 C10.67 10.68 10.34 9.36 10 8 C8.02 8.99 8.02 8.99 6 10 C5.34 9.01 4.68 8.02 4 7 C3.67 8.65 3.34 10.3 3 12 C2.01 12 1.02 12 0 12 C0 8.04 0 4.08 0 0 Z " fill="#181818" transform="translate(106,3)"/>
<path d="M0 0 C0 0.99 0 1.98 0 3 C-2.31 3 -4.62 3 -7 3 C-7 3.66 -7 4.32 -7 5 C-6.05125 4.95875 -5.1025 4.9175 -4.125 4.875 C-1 5 -1 5 1 7 C0.46428571 10.53571429 0.46428571 10.53571429 -1 12 C-2.68608966 12.07205511 -4.37500659 12.08386068 -6.0625 12.0625 C-6.98160156 12.05347656 -7.90070313 12.04445313 -8.84765625 12.03515625 C-9.55792969 12.02355469 -10.26820313 12.01195312 -11 12 C-11 11.01 -11 10.02 -11 9 C-10.01 8.67 -9.02 8.34 -8 8 C-8.99 7.34 -9.98 6.68 -11 6 C-10.625 3.5625 -10.625 3.5625 -10 1 C-6.78548731 -0.60725635 -3.56387464 -0.05748185 0 0 Z " fill="#222222" transform="translate(149,3)"/>
<path d="M0 0 C4.59037956 1.14759489 5.33669182 2.29039218 8 6 C8.33 4.02 8.66 2.04 9 0 C9.99 0 10.98 0 12 0 C12 3.96 12 7.92 12 12 C7.40962044 10.85240511 6.66330818 9.70960782 4 6 C3.67 7.98 3.34 9.96 3 12 C2.01 12 1.02 12 0 12 C0 8.04 0 4.08 0 0 Z " fill="#141414" transform="translate(16,3)"/>
<path d="M0 0 C1.859375 0.22265625 1.859375 0.22265625 4 1 C5.265625 2.99609375 5.265625 2.99609375 6.25 5.4375 C6.58515625 6.24058594 6.9203125 7.04367188 7.265625 7.87109375 C8 10 8 10 8 12 C7.01 12 6.02 12 5 12 C5 11.34 5 10.68 5 10 C2.69 10 0.38 10 -2 10 C-2 10.66 -2 11.32 -2 12 C-2.99 12 -3.98 12 -5 12 C-3.68938409 7.76570244 -2.05643741 3.92592596 0 0 Z " fill="#2D2D2D" transform="translate(6,3)"/>
<path d="M0 0 C1.859375 0.22265625 1.859375 0.22265625 4 1 C5.265625 2.99609375 5.265625 2.99609375 6.25 5.4375 C6.58515625 6.24058594 6.9203125 7.04367188 7.265625 7.87109375 C8 10 8 10 8 12 C7.01 12 6.02 12 5 12 C5 11.34 5 10.68 5 10 C2.69 10 0.38 10 -2 10 C-2 10.66 -2 11.32 -2 12 C-2.99 12 -3.98 12 -5 12 C-3.68938409 7.76570244 -2.05643741 3.92592596 0 0 Z " fill="#393939" transform="translate(96,3)"/>
<path d="M0 0 C0.33 0.99 0.66 1.98 1 3 C1.763125 2.773125 2.52625 2.54625 3.3125 2.3125 C6 2 6 2 7.8125 3.3125 C9 5 9 5 9 7 C8.01 7 7.02 7 6 7 C6 6.34 6 5.68 6 5 C3.69 5 1.38 5 -1 5 C-1 5.66 -1 6.32 -1 7 C-1.99 7 -2.98 7 -4 7 C-3.39816251 4.97954558 -2.72693904 2.97888961 -2 1 C-1.34 0.67 -0.68 0.34 0 0 Z " fill="#0C0C0C" transform="translate(95,8)"/>
<path d="M0 0 C1.32 0.33 2.64 0.66 4 1 C3.67 2.65 3.34 4.3 3 6 C4.32 6 5.64 6 7 6 C7 6.66 7 7.32 7 8 C5.35 8 3.7 8 2 8 C2 9.32 2 10.64 2 12 C1.34 12 0.68 12 0 12 C0 8.04 0 4.08 0 0 Z " fill="#0A0A0A" transform="translate(46,3)"/>
<path d="M0 0 C2.5 0.125 2.5 0.125 3.5 1.125 C3.54063832 2.79117115 3.542721 4.45888095 3.5 6.125 C1.19 6.125 -1.12 6.125 -3.5 6.125 C-3.542721 4.45888095 -3.54063832 2.79117115 -3.5 1.125 C-2.5 0.125 -2.5 0.125 0 0 Z " fill="#F8F8F8" transform="translate(129.5,5.875)"/>
<path d="M0 0 C1.66611905 -0.042721 3.33382885 -0.04063832 5 0 C6 1 6 1 6.125 3.5 C6 6 6 6 5 7 C3.33382885 7.04063832 1.66611905 7.042721 0 7 C0 4.69 0 2.38 0 0 Z " fill="#EDEDED" transform="translate(34,6)"/>
<path d="M0 0 C0.33 0 0.66 0 1 0 C1 3.96 1 7.92 1 12 C-0.98 12.33 -2.96 12.66 -5 13 C-4.01 12.67 -3.02 12.34 -2 12 C-2.226875 11.319375 -2.45375 10.63875 -2.6875 9.9375 C-3.12290176 5.84472345 -1.79836785 3.66867041 0 0 Z " fill="#E7E7E7" transform="translate(59,3)"/>
<path d="M0 0 C0.99 0 1.98 0 3 0 C3 3.96 3 7.92 3 12 C2.34 12 1.68 12 1 12 C1 9.69 1 7.38 1 5 C0.01 5 -0.98 5 -2 5 C-1.34 3.35 -0.68 1.7 0 0 Z " fill="#090909" transform="translate(117,3)"/>
<path d="M0 0 C0.33 0.99 0.66 1.98 1 3 C1.99 3.33 2.98 3.66 4 4 C3.360625 4.12375 2.72125 4.2475 2.0625 4.375 C1.0415625 4.684375 1.0415625 4.684375 0 5 C-0.33 5.66 -0.66 6.32 -1 7 C-1.99 7 -2.98 7 -4 7 C-3.39816251 4.97954558 -2.72693904 2.97888961 -2 1 C-1.34 0.67 -0.68 0.34 0 0 Z " fill="#0D0D0D" transform="translate(5,8)"/>
<path d="M0 0 C2.0625 0.4375 2.0625 0.4375 4 1 C3.67 1.33 3.34 1.66 3 2 C3.99 2.66 4.98 3.32 6 4 C2.37 4 -1.26 4 -5 4 C-3.68 3.01 -2.36 2.02 -1 1 C-0.67 0.67 -0.34 0.34 0 0 Z " fill="#6C6C6C" transform="translate(65,0)"/>
<path d="M0 0 C1.98 0 3.96 0 6 0 C6 0.99 6 1.98 6 3 C4.02 3 2.04 3 0 3 C0 2.01 0 1.02 0 0 Z " fill="#0F0F0F" transform="translate(143,3)"/>
<path d="M0 0 C1.98 0 3.96 0 6 0 C5.67 0.99 5.34 1.98 5 3 C3.35 3 1.7 3 0 3 C0 2.01 0 1.02 0 0 Z " fill="#DBDBDB" transform="translate(80,6)"/>
</svg>
